# This file uses centimeters as units for non-parametric coordinates.

mtllib BOXX_NEW_HURDULE.mtl
g default
v -1.312978 0.000000 2.401723
v 1.411883 0.000000 2.401723
v -1.312978 2.724861 2.401723
v 1.411883 2.724861 2.401723
v -1.312978 2.724861 -0.323138
v 1.411883 2.724861 -0.323138
v -1.312978 0.000000 -0.323138
v 1.411883 0.000000 -0.323138
v -0.942978 0.370000 2.401723
v 1.041883 0.370000 2.401723
v 1.041883 2.354861 2.401723
v -0.942978 2.354861 2.401723
v -0.942978 2.724861 2.031723
v 1.041883 2.724861 2.031723
v 1.041883 2.724861 0.046862
v -0.942978 2.724861 0.046862
v -0.942978 2.354861 -0.323138
v 1.041883 2.354861 -0.323138
v 1.041883 0.370000 -0.323138
v -0.942978 0.370000 -0.323138
v 1.411883 0.370000 0.046862
v 1.411883 0.370000 2.031723
v 1.411883 2.354861 0.046862
v 1.411883 2.354861 2.031723
v -1.312978 0.370000 0.046862
v -1.312978 0.370000 2.031723
v -1.312978 2.354861 2.031723
v -1.312978 2.354861 0.046862
vt 0.000000 0.000000
vt 1.000000 0.000000
vt 1.000000 1.000000
vt 0.000000 1.000000
vt -0.002202 0.002212
vt 0.997789 -0.002202
vt 1.002202 0.997788
vt 0.002212 1.002202
vt -0.001471 0.001475
vt 0.998525 -0.001471
vt 1.001471 0.998525
vt 0.001475 1.001471
vt 1.000000 1.000000
vt -0.000000 1.000000
vt 0.000000 0.000000
vt 1.000000 0.000000
vt 0.000000 0.000000
vt 1.000000 0.000000
vt 1.000000 1.000000
vt -0.000000 1.000000
vt 0.001890 0.668528
vt 0.331370 0.668528
vt 0.286631 0.713267
vt 0.046629 0.713267
vt 0.331370 0.998008
vt 0.286631 0.953269
vt 0.001890 0.998008
vt 0.046629 0.953269
vt 0.338705 0.668528
vt 0.668185 0.668528
vt 0.623446 0.713267
vt 0.383444 0.713267
vt 0.668185 0.998008
vt 0.623446 0.953269
vt 0.338705 0.998008
vt 0.383444 0.953269
vt 0.001891 0.331472
vt 0.001891 0.001992
vt 0.331370 0.001992
vt 0.331370 0.331472
vt 0.617659 0.664740
vt 0.617659 0.335260
vt 0.662398 0.379999
vt 0.662398 0.620001
vt 0.947139 0.335260
vt 0.902400 0.379999
vt 0.947139 0.664740
vt 0.902400 0.620001
vt 0.338705 0.001992
vt 0.668185 0.001992
vt 0.623446 0.046731
vt 0.383444 0.046731
vt 0.668185 0.331472
vt 0.623446 0.286733
vt 0.338705 0.331472
vt 0.383444 0.286733
vt 0.282356 0.335260
vt 0.611836 0.335260
vt 0.567097 0.379999
vt 0.327095 0.379999
vt 0.611836 0.664740
vt 0.567097 0.620001
vt 0.282356 0.664740
vt 0.327095 0.620001
vn -0.000000 0.000000 1.000000
vn -0.000000 0.000000 1.000000
vn -0.000000 0.000000 1.000000
vn -0.000000 0.000000 1.000000
vn 0.000000 1.000000 0.000000
vn 0.000000 1.000000 0.000000
vn 0.000000 1.000000 -0.000000
vn 0.000000 1.000000 -0.000000
vn 0.000000 0.000000 -1.000000
vn -0.000000 0.000000 -1.000000
vn -0.000000 0.000000 -1.000000
vn 0.000000 0.000000 -1.000000
vn 0.000000 -1.000000 0.000000
vn 0.000000 -1.000000 0.000000
vn 0.000000 -1.000000 0.000000
vn 0.000000 -1.000000 0.000000
vn 1.000000 0.000000 0.000000
vn 1.000000 0.000000 0.000000
vn 1.000000 -0.000000 0.000000
vn 1.000000 -0.000000 0.000000
vn -1.000000 0.000000 0.000000
vn -1.000000 0.000000 0.000000
vn -1.000000 -0.000000 0.000000
vn -1.000000 -0.000000 0.000000
vn -0.000000 0.000000 1.000000
vn -0.000000 0.000000 1.000000
vn -0.000000 0.000000 1.000000
vn -0.000000 0.000000 1.000000
vn 0.000000 1.000000 0.000000
vn 0.000000 1.000000 0.000000
vn 0.000000 1.000000 -0.000000
vn 0.000000 1.000000 -0.000000
vn 0.000000 0.000000 -1.000000
vn -0.000000 0.000000 -1.000000
vn -0.000000 0.000000 -1.000000
vn 0.000000 0.000000 -1.000000
vn 1.000000 0.000000 0.000000
vn 1.000000 0.000000 0.000000
vn 1.000000 -0.000000 0.000000
vn 1.000000 -0.000000 0.000000
vn -1.000000 0.000000 0.000000
vn -1.000000 0.000000 0.000000
vn -1.000000 -0.000000 0.000000
vn -1.000000 -0.000000 0.000000
s 1
g pCube1
usemtl blinn1SG
f 9/5/1 10/6/2 11/7/3 12/8/4
s 2
f 13/17/5 14/18/6 15/19/7 16/20/8
s 3
f 17/13/9 18/14/10 19/15/11 20/16/12
s off
usemtl initialShadingGroup
f 7/37/13 8/38/14 2/39/15 1/40/16
s 4
usemtl blinn1SG
f 22/1/17 21/2/18 23/3/19 24/4/20
s 5
f 25/9/21 26/10/22 27/11/23 28/12/24
s 1
usemtl initialShadingGroup
f 1/49/25 2/50/26 10/51/2 9/52/1
f 2/50/26 4/53/27 11/54/3 10/51/2
f 4/53/27 3/55/28 12/56/4 11/54/3
f 3/55/28 1/49/25 9/52/1 12/56/4
s 2
f 3/41/29 4/42/30 14/43/6 13/44/5
f 4/42/30 6/45/31 15/46/7 14/43/6
f 6/45/31 5/47/32 16/48/8 15/46/7
f 5/47/32 3/41/29 13/44/5 16/48/8
s 3
f 5/57/33 6/58/34 18/59/10 17/60/9
f 6/58/34 8/61/35 19/62/11 18/59/10
f 8/61/35 7/63/36 20/64/12 19/62/11
f 7/63/36 5/57/33 17/60/9 20/64/12
s 4
f 2/21/37 8/22/38 21/23/18 22/24/17
f 8/22/38 6/25/39 23/26/19 21/23/18
f 6/25/39 4/27/40 24/28/20 23/26/19
f 4/27/40 2/21/37 22/24/17 24/28/20
s 5
f 7/29/41 1/30/42 26/31/22 25/32/21
f 1/30/42 3/33/43 27/34/23 26/31/22
f 3/33/43 5/35/44 28/36/24 27/34/23
f 5/35/44 7/29/41 25/32/21 28/36/24
